<svg data-v-423bf9ae="" xmlns="http://www.w3.org/2000/svg" viewBox="0 0 841.8848136651878 60" class="font"><!----><!----><!----><g data-v-423bf9ae="" id="da57cbe4-3dca-473a-8669-fe2962d67470" fill="black" transform="matrix(6.443817615509033,0,0,6.443817615509033,-1.8687454462051392,-22.488922119140625)"><path d="M5.60 5.42L5.63 6.41L5.63 6.41Q6.45 4.65 7.46 4.66L7.46 4.66L7.46 4.66Q8.47 4.67 8.36 6.88L8.36 6.88L8.36 6.88Q8.34 10.78 8.39 11.50L8.39 11.50L8.39 11.50Q8.44 12.22 9.02 12.74L9.02 12.74L10.12 11.56L10.05 11.33L10.05 11.33Q9.36 12.04 9.37 10.04L9.37 10.04L9.39 6.15L9.39 6.15Q9.42 4.08 8.57 3.68L8.57 3.68L8.57 3.68Q7.72 3.29 7.08 3.81L7.08 3.81L7.08 3.81Q6.45 4.33 6.17 4.66L6.17 4.66L6.17 4.66Q5.89 4.98 5.60 5.42L5.60 5.42ZM1.59 3.67L0.29 4.94L0.37 5.17L0.37 5.17Q1.00 4.62 1.01 6.49L1.01 6.49L1.01 6.49Q0.94 10.86 1.03 11.52L1.03 11.52L1.03 11.52Q1.12 12.19 1.70 12.71L1.70 12.71L2.76 11.67L2.76 11.42L2.76 11.42Q2.19 11.54 2.11 10.31L2.11 10.31L2.11 10.31Q2.03 9.07 2.11 6.28L2.11 6.28L2.11 6.28Q2.83 4.65 3.84 4.66L3.84 4.66L3.84 4.66Q4.85 4.67 4.76 6.61L4.76 6.61L4.76 6.61Q4.72 10.78 4.76 11.50L4.76 11.50L4.76 11.50Q4.81 12.22 5.39 12.74L5.39 12.74L6.50 11.56L6.43 11.33L6.43 11.33Q5.74 12.04 5.77 8.80L5.77 8.80L5.77 8.80Q5.80 5.56 5.67 4.88L5.67 4.88L5.67 4.88Q5.54 4.20 4.82 3.74L4.82 3.74L4.82 3.74Q4.09 3.29 3.46 3.81L3.46 3.81L3.46 3.81Q2.82 4.33 2.54 4.66L2.54 4.66L2.54 4.66Q2.26 4.98 2.08 5.29L2.08 5.29L2.08 5.29Q2.14 4.05 1.59 3.67L1.59 3.67ZM14.15 6.60L14.15 6.60L14.15 6.60Q13.08 6.43 12.15 7.26L12.15 7.26L12.15 7.26Q11.22 8.09 10.96 9.20L10.96 9.20L10.96 9.20Q10.71 10.31 11.13 11.26L11.13 11.26L11.13 11.26Q11.55 12.22 12.69 12.62L12.69 12.62L12.69 12.62Q13.62 12.93 14.62 12.18L14.62 12.18L14.62 12.18Q15.63 11.43 15.74 10.84L15.74 10.84L15.53 10.68L15.53 10.68Q14.71 11.85 13.93 11.81L13.93 11.81L13.93 11.81Q13.15 11.76 12.77 11.46L12.77 11.46L12.77 11.46Q12.38 11.15 12.17 10.80L12.17 10.80L14.06 9.54L14.06 9.54Q15.50 8.65 15.36 7.70L15.36 7.70L15.36 7.70Q15.22 6.76 14.15 6.60ZM11.72 8.75L11.72 8.75L11.72 8.75Q11.72 8.12 12.23 7.58L12.23 7.58L12.23 7.58Q12.74 7.04 13.33 7.19L13.33 7.19L13.33 7.19Q13.93 7.34 14.17 8.00L14.17 8.00L14.17 8.00Q14.40 8.67 14.11 9.02L14.11 9.02L14.11 9.02Q13.82 9.37 11.99 10.40L11.99 10.40L11.99 10.40Q11.83 10.04 11.77 9.71L11.77 9.71L11.77 9.71Q11.71 9.37 11.72 8.75ZM18.96 6.54L18.96 6.54L18.96 6.54Q17.94 6.56 17.09 7.23L17.09 7.23L17.09 7.23Q16.25 7.90 16.67 8.74L16.67 8.74L17.79 8.07L17.79 8.07Q17.57 6.90 18.99 7.03L18.99 7.03L18.99 7.03Q20.42 7.15 20.23 8.89L20.23 8.89L20.23 8.89Q19.13 8.39 18.25 8.61L18.25 8.61L18.25 8.61Q17.37 8.82 16.63 9.71L16.63 9.71L16.63 9.71Q16.04 10.58 16.26 11.18L16.26 11.18L16.26 11.18Q16.47 11.79 16.96 12.23L16.96 12.23L16.96 12.23Q17.44 12.67 18.04 12.71L18.04 12.71L18.04 12.71Q18.63 12.76 19.04 12.48L19.04 12.48L19.04 12.48Q19.46 12.20 20.25 11.49L20.25 11.49L20.25 11.49Q20.32 12.36 20.81 12.76L20.81 12.76L21.92 11.80L21.83 11.64L21.83 11.64Q21.27 12.10 21.21 10.58L21.21 10.58L21.21 8.14L21.21 8.14Q21.18 7.23 20.58 6.88L20.58 6.88L20.58 6.88Q19.97 6.53 18.96 6.54ZM19.93 9.84L19.93 9.84L20.21 9.47L20.21 11.08L20.21 11.08Q19.35 11.95 18.72 11.90L18.72 11.90L18.72 11.90Q18.10 11.85 17.68 11.48L17.68 11.48L17.68 11.48Q17.25 11.12 17.06 10.64L17.06 10.64L17.06 10.64Q16.87 10.17 17.14 9.71L17.14 9.71L17.14 9.71Q17.40 9.26 18.19 9.19L18.19 9.19L18.19 9.19Q18.98 9.11 19.93 9.84ZM27.23 3.49L27.23 3.49L26.27 4.12L26.27 4.12Q26.69 4.92 26.61 6.83L26.61 6.83L26.61 6.83Q26.05 6.51 25.62 6.55L25.62 6.55L25.62 6.55Q25.19 6.58 24.58 6.83L24.58 6.83L24.58 6.83Q23.97 7.09 23.35 7.69L23.35 7.69L23.35 7.69Q22.74 8.30 22.55 9.34L22.55 9.34L22.55 9.34Q22.36 10.39 23.07 11.52L23.07 11.52L23.07 11.52Q23.79 12.65 24.50 12.71L24.50 12.71L24.50 12.71Q25.20 12.78 26.66 11.28L26.66 11.28L26.66 11.28Q26.66 12.25 27.08 12.75L27.08 12.75L28.08 11.96L28.08 11.96Q27.53 11.50 27.64 7.76L27.64 7.76L27.64 7.76Q27.76 4.01 27.23 3.49ZM24.80 7.35L24.80 7.35L24.80 7.35Q25.96 7.18 26.29 8.34L26.29 8.34L26.62 8.05L26.61 10.73L26.61 10.73Q26.35 11.29 25.66 11.67L25.66 11.67L25.66 11.67Q24.96 12.04 24.18 10.87L24.18 10.87L24.18 10.87Q23.41 9.69 23.52 8.60L23.52 8.60L23.52 8.60Q23.64 7.51 24.80 7.35ZM31.07 6.45L31.07 6.45Q29.92 7.21 29.45 7.77L29.45 7.77L29.45 7.77Q28.97 8.33 28.78 8.89L28.78 8.89L28.78 8.89Q28.59 9.46 28.71 10.32L28.71 10.32L28.71 10.32Q28.84 11.17 29.71 11.96L29.71 11.96L29.71 11.96Q30.58 12.75 31.10 12.75L31.10 12.75L31.10 12.75Q31.62 12.76 32.73 11.73L32.73 11.73L32.73 11.73Q33.16 11.34 33.55 10.82L33.55 10.82L33.55 10.82Q33.95 10.31 34.06 9.74L34.06 9.74L34.06 9.74Q34.17 9.17 34.00 8.50L34.00 8.50L34.00 8.50Q33.82 7.83 33.02 7.04L33.02 7.04L33.02 7.04Q32.21 6.25 31.07 6.45L31.07 6.45ZM30.71 7.26L30.71 7.26L30.71 7.26Q31.49 7.08 32.43 8.24L32.43 8.24L32.43 8.24Q33.37 9.41 33.17 10.23L33.17 10.23L33.17 10.23Q32.97 11.06 32.31 11.56L32.31 11.56L32.31 11.56Q31.66 12.05 30.92 11.45L30.92 11.45L30.92 11.45Q30.18 10.84 29.74 10.15L29.74 10.15L29.74 10.15Q29.31 9.46 29.61 8.45L29.61 8.45L29.61 8.45Q29.92 7.43 30.71 7.26ZM39.41 10.45L39.17 10.17L38.00 11.57L35.58 6.67L35.58 6.67Q35.33 6.38 34.95 6.71L34.95 6.71L34.08 7.37L34.20 7.57L34.20 7.57Q34.48 7.11 35.08 8.15L35.08 8.15L37.32 12.69L37.60 12.69L38.21 11.91L39.41 10.45ZM40.04 7.12L40.04 7.12L40.20 7.24L40.20 7.24Q40.70 6.55 41.56 7.48L41.56 7.48L41.56 7.48Q42.42 8.40 42.14 9.44L42.14 9.44L42.14 9.44Q41.86 10.48 40.94 11.57L40.94 11.57L38.52 6.67L38.52 6.67Q38.27 6.38 37.88 6.71L37.88 6.71L37.02 7.37L37.14 7.57L37.14 7.57Q37.42 7.11 38.01 8.15L38.01 8.15L40.26 12.69L40.54 12.69L41.15 11.91L41.15 11.91Q42.10 10.77 42.80 9.74L42.80 9.74L42.80 9.74Q43.50 8.71 43.02 7.57L43.02 7.57L43.02 7.57Q42.53 6.43 41.65 6.17L41.65 6.17L41.65 6.17Q40.76 5.91 40.04 7.12ZM45.08 3.53L44.13 4.05L44.13 4.05Q44.42 4.42 44.41 5.35L44.41 5.35L44.41 5.35Q44.22 11.53 44.33 12.01L44.33 12.01L44.33 12.01Q44.45 12.50 45.01 12.80L45.01 12.80L46.33 11.96L46.20 11.72L46.20 11.72Q45.70 12.04 45.45 11.35L45.45 11.35L45.45 11.35Q45.20 10.66 45.42 4.89L45.42 4.89L45.42 4.89Q45.39 3.89 45.08 3.53L45.08 3.53ZM49.71 6.54L49.71 6.54L49.71 6.54Q48.69 6.56 47.85 7.23L47.85 7.23L47.85 7.23Q47.00 7.90 47.43 8.74L47.43 8.74L48.54 8.07L48.54 8.07Q48.32 6.90 49.75 7.03L49.75 7.03L49.75 7.03Q51.17 7.15 50.99 8.89L50.99 8.89L50.99 8.89Q49.88 8.39 49.00 8.61L49.00 8.61L49.00 8.61Q48.13 8.82 47.39 9.71L47.39 9.71L47.39 9.71Q46.80 10.58 47.01 11.18L47.01 11.18L47.01 11.18Q47.23 11.79 47.71 12.23L47.71 12.23L47.71 12.23Q48.19 12.67 48.79 12.71L48.79 12.71L48.79 12.71Q49.39 12.76 49.80 12.48L49.80 12.48L49.80 12.48Q50.21 12.20 51.00 11.49L51.00 11.49L51.00 11.49Q51.07 12.36 51.56 12.76L51.56 12.76L52.68 11.80L52.59 11.64L52.59 11.64Q52.02 12.10 51.96 10.58L51.96 10.58L51.97 8.14L51.97 8.14Q51.93 7.23 51.33 6.88L51.33 6.88L51.33 6.88Q50.73 6.53 49.71 6.54ZM50.69 9.84L50.69 9.84L50.96 9.47L50.97 11.08L50.97 11.08Q50.10 11.95 49.48 11.90L49.48 11.90L49.48 11.90Q48.86 11.85 48.43 11.48L48.43 11.48L48.43 11.48Q48.01 11.12 47.82 10.64L47.82 10.64L47.82 10.64Q47.63 10.17 47.89 9.71L47.89 9.71L47.89 9.71Q48.16 9.26 48.95 9.19L48.95 9.19L48.95 9.19Q49.73 9.11 50.69 9.84ZM54.24 6.46L53.02 7.35L53.14 7.52L53.14 7.52Q53.71 7.06 53.72 8.50L53.72 8.50L53.72 8.50Q53.66 11.46 53.74 11.91L53.74 11.91L53.74 11.91Q53.83 12.37 54.46 12.71L54.46 12.71L55.52 11.87L55.44 11.75L55.44 11.75Q54.90 11.96 54.80 11.08L54.80 11.08L54.80 11.08Q54.69 10.19 54.77 8.11L54.77 8.11L54.77 8.11Q55.78 6.60 56.60 8.12L56.60 8.12L57.48 7.42L57.48 7.42Q57.20 6.74 56.74 6.57L56.74 6.57L56.74 6.57Q56.28 6.39 55.85 6.58L55.85 6.58L55.85 6.58Q55.41 6.76 54.70 7.66L54.70 7.66L54.70 7.66Q54.76 6.82 54.24 6.46L54.24 6.46ZM58.65 3.53L57.67 4.14L57.67 4.14Q58.04 4.60 57.98 5.40L57.98 5.40L57.98 5.40Q57.91 11.56 58.03 12.01L58.03 12.01L58.03 12.01Q58.15 12.46 58.70 12.75L58.70 12.75L59.75 11.99L59.66 11.85L59.66 11.85Q59.25 11.88 59.08 11.18L59.08 11.18L59.10 10.04L59.10 10.04Q59.72 9.61 60.19 9.75L60.19 9.75L60.19 9.75Q60.66 9.88 61.27 11.15L61.27 11.15L61.27 11.15Q61.89 12.42 62.38 12.70L62.38 12.70L63.35 11.87L63.26 11.66L63.26 11.66Q62.81 11.87 62.18 10.57L62.18 10.57L62.18 10.57Q61.56 9.28 60.92 9.13L60.92 9.13L60.92 9.13Q61.78 8.69 61.97 8.09L61.97 8.09L61.97 8.09Q62.17 7.49 61.77 7.00L61.77 7.00L61.77 7.00Q61.37 6.51 60.77 6.56L60.77 6.56L60.77 6.56Q60.16 6.60 59.77 6.81L59.77 6.81L59.77 6.81Q59.38 7.03 59.04 7.21L59.04 7.21L59.10 4.27L59.10 4.27Q58.99 3.79 58.65 3.53L58.65 3.53ZM59.08 9.60L59.08 7.67L59.08 7.67Q59.64 7.10 60.23 7.15L60.23 7.15L60.23 7.15Q60.83 7.20 60.92 7.86L60.92 7.86L60.92 7.86Q61.02 8.53 60.65 8.84L60.65 8.84L60.65 8.84Q60.29 9.15 59.08 9.60L59.08 9.60ZM69.92 3.60L69.92 3.60L69.92 3.60Q69.34 3.74 68.85 4.16L68.85 4.16L68.85 4.16Q68.37 4.59 68.00 5.09L68.00 5.09L68.00 5.09Q67.64 5.59 67.62 6.30L67.62 6.30L67.62 6.30Q67.61 7.01 68.08 7.49L68.08 7.49L68.08 7.49Q68.55 7.97 70.04 8.54L70.04 8.54L70.04 8.54Q71.52 9.11 71.57 9.93L71.57 9.93L71.57 9.93Q71.61 10.75 71.25 11.20L71.25 11.20L71.25 11.20Q70.90 11.66 70.25 11.62L70.25 11.62L70.25 11.62Q69.60 11.57 68.95 11.14L68.95 11.14L68.95 11.14Q68.29 10.71 68.01 10.07L68.01 10.07L68.01 10.07Q67.74 9.43 68.04 9.00L68.04 9.00L67.87 8.87L67.02 9.94L67.02 9.94Q67.02 10.58 67.39 11.21L67.39 11.21L67.39 11.21Q67.76 11.85 68.58 12.33L68.58 12.33L68.58 12.33Q69.40 12.80 70.21 12.65L70.21 12.65L70.21 12.65Q71.01 12.51 71.83 11.36L71.83 11.36L71.83 11.36Q72.65 10.21 72.60 9.42L72.60 9.42L72.60 9.42Q72.56 8.63 72.03 8.14L72.03 8.14L72.03 8.14Q71.50 7.65 70.12 7.23L70.12 7.23L70.12 7.23Q68.74 6.81 68.59 5.79L68.59 5.79L68.59 5.79Q68.43 4.78 69.11 4.58L69.11 4.58L69.11 4.58Q69.78 4.39 70.46 4.80L70.46 4.80L70.46 4.80Q71.14 5.21 71.00 5.72L71.00 5.72L71.11 5.80L72.05 4.92L72.05 4.92Q71.94 4.22 71.22 3.84L71.22 3.84L71.22 3.84Q70.51 3.46 69.92 3.60ZM75.99 6.65L75.99 6.65L75.99 6.65Q75.61 6.80 75.27 7.02L75.27 7.02L75.27 7.02Q74.94 7.23 74.58 7.52L74.58 7.52L74.58 7.52Q72.30 9.38 73.90 11.66L73.90 11.66L73.90 11.66Q74.35 12.21 74.81 12.45L74.81 12.45L74.81 12.45Q75.28 12.69 75.92 12.70L75.92 12.70L75.92 12.70Q76.57 12.70 77.19 12.05L77.19 12.05L77.19 12.05Q77.82 11.40 78.26 10.75L78.26 10.75L78.05 10.55L78.05 10.55Q77.88 10.78 77.61 11.06L77.61 11.06L77.61 11.06Q77.34 11.35 76.95 11.52L76.95 11.52L76.95 11.52Q76.55 11.70 76.05 11.63L76.05 11.63L76.05 11.63Q75.55 11.57 75.06 11.10L75.06 11.10L75.06 11.10Q74.56 10.62 74.25 9.71L74.25 9.71L74.25 9.71Q73.94 8.80 74.30 8.27L74.30 8.27L74.30 8.27Q74.65 7.75 75.31 7.57L75.31 7.57L75.31 7.57Q75.97 7.40 76.43 7.63L76.43 7.63L76.43 7.63Q76.88 7.86 77.28 8.63L77.28 8.63L78.08 7.96L78.08 7.96Q77.95 7.42 77.58 7.05L77.58 7.05L77.58 7.05Q77.21 6.69 76.79 6.59L76.79 6.59L76.79 6.59Q76.37 6.49 75.99 6.65ZM80.17 3.51L79.13 4.14L79.13 4.14Q79.38 4.59 79.34 5.50L79.34 5.50L79.34 5.50Q79.32 11.40 79.44 11.88L79.44 11.88L79.44 11.88Q79.56 12.37 80.03 12.71L80.03 12.71L80.90 11.96L80.90 11.96Q80.53 11.46 80.46 10.78L80.46 10.78L80.46 10.78Q80.39 10.10 80.47 8.21L80.47 8.21L80.47 8.21Q81.37 7.25 82.50 7.23L82.50 7.23L82.50 7.23Q83.63 7.21 83.46 9.29L83.46 9.29L83.46 9.29Q83.43 11.34 83.56 11.82L83.56 11.82L83.56 11.82Q83.69 12.30 84.18 12.68L84.18 12.68L85.00 11.88L85.00 11.88Q84.61 11.82 84.51 11.01L84.51 11.01L84.51 11.01Q84.42 10.20 84.49 8.76L84.49 8.76L84.49 8.76Q84.53 7.88 84.34 7.35L84.34 7.35L84.34 7.35Q84.15 6.82 83.50 6.58L83.50 6.58L83.50 6.58Q82.84 6.33 82.24 6.50L82.24 6.50L82.24 6.50Q81.63 6.67 81.22 7.01L81.22 7.01L81.22 7.01Q80.81 7.36 80.49 7.55L80.49 7.55L80.47 4.85L80.47 4.85Q80.50 3.89 80.17 3.51L80.17 3.51ZM87.99 6.45L87.99 6.45Q86.84 7.21 86.36 7.77L86.36 7.77L86.36 7.77Q85.89 8.33 85.70 8.89L85.70 8.89L85.70 8.89Q85.50 9.46 85.63 10.32L85.63 10.32L85.63 10.32Q85.76 11.17 86.63 11.96L86.63 11.96L86.63 11.96Q87.49 12.75 88.01 12.75L88.01 12.75L88.01 12.75Q88.53 12.76 89.65 11.73L89.65 11.73L89.65 11.73Q90.08 11.34 90.47 10.82L90.47 10.82L90.47 10.82Q90.86 10.31 90.98 9.74L90.98 9.74L90.98 9.74Q91.09 9.17 90.91 8.50L90.91 8.50L90.91 8.50Q90.74 7.83 89.93 7.04L89.93 7.04L89.93 7.04Q89.13 6.25 87.99 6.45L87.99 6.45ZM87.62 7.26L87.62 7.26L87.62 7.26Q88.41 7.08 89.35 8.24L89.35 8.24L89.35 8.24Q90.28 9.41 90.08 10.23L90.08 10.23L90.08 10.23Q89.89 11.06 89.23 11.56L89.23 11.56L89.23 11.56Q88.57 12.05 87.83 11.45L87.83 11.45L87.83 11.45Q87.10 10.84 86.66 10.15L86.66 10.15L86.66 10.15Q86.22 9.46 86.53 8.45L86.53 8.45L86.53 8.45Q86.84 7.43 87.62 7.26ZM94.03 6.45L94.03 6.45Q92.88 7.21 92.40 7.77L92.40 7.77L92.40 7.77Q91.93 8.33 91.74 8.89L91.74 8.89L91.74 8.89Q91.55 9.46 91.67 10.32L91.67 10.32L91.67 10.32Q91.80 11.17 92.67 11.96L92.67 11.96L92.67 11.96Q93.54 12.75 94.06 12.75L94.06 12.75L94.06 12.75Q94.58 12.76 95.69 11.73L95.69 11.73L95.69 11.73Q96.12 11.34 96.51 10.82L96.51 10.82L96.51 10.82Q96.91 10.31 97.02 9.74L97.02 9.74L97.02 9.74Q97.13 9.17 96.96 8.50L96.96 8.50L96.96 8.50Q96.78 7.83 95.98 7.04L95.98 7.04L95.98 7.04Q95.17 6.25 94.03 6.45L94.03 6.45ZM93.67 7.26L93.67 7.26L93.67 7.26Q94.45 7.08 95.39 8.24L95.39 8.24L95.39 8.24Q96.33 9.41 96.13 10.23L96.13 10.23L96.13 10.23Q95.93 11.06 95.27 11.56L95.27 11.56L95.27 11.56Q94.62 12.05 93.88 11.45L93.88 11.45L93.88 11.45Q93.14 10.84 92.70 10.15L92.70 10.15L92.70 10.15Q92.26 9.46 92.57 8.45L92.57 8.45L92.57 8.45Q92.88 7.43 93.67 7.26ZM98.86 3.53L97.91 4.05L97.91 4.05Q98.21 4.42 98.19 5.35L98.19 5.35L98.19 5.35Q98.01 11.53 98.12 12.01L98.12 12.01L98.12 12.01Q98.23 12.50 98.80 12.80L98.80 12.80L100.12 11.96L99.98 11.72L99.98 11.72Q99.48 12.04 99.23 11.35L99.23 11.35L99.23 11.35Q98.98 10.66 99.20 4.89L99.20 4.89L99.20 4.89Q99.18 3.89 98.86 3.53L98.86 3.53ZM102.08 3.51L101.04 4.14L101.04 4.14Q101.29 4.59 101.25 5.50L101.25 5.50L101.25 5.50Q101.23 11.40 101.35 11.88L101.35 11.88L101.35 11.88Q101.47 12.37 101.94 12.71L101.94 12.71L102.81 11.96L102.81 11.96Q102.44 11.46 102.37 10.78L102.37 10.78L102.37 10.78Q102.30 10.10 102.38 8.21L102.38 8.21L102.38 8.21Q103.28 7.25 104.41 7.23L104.41 7.23L104.41 7.23Q105.54 7.21 105.37 9.29L105.37 9.29L105.37 9.29Q105.33 11.34 105.47 11.82L105.47 11.82L105.47 11.82Q105.60 12.30 106.09 12.68L106.09 12.68L106.91 11.88L106.91 11.88Q106.52 11.82 106.42 11.01L106.42 11.01L106.42 11.01Q106.33 10.20 106.39 8.76L106.39 8.76L106.39 8.76Q106.44 7.88 106.25 7.35L106.25 7.35L106.25 7.35Q106.06 6.82 105.41 6.58L105.41 6.58L105.41 6.58Q104.75 6.33 104.15 6.50L104.15 6.50L104.15 6.50Q103.54 6.67 103.13 7.01L103.13 7.01L103.13 7.01Q102.72 7.36 102.40 7.55L102.40 7.55L102.38 4.85L102.38 4.85Q102.41 3.89 102.08 3.51L102.08 3.51ZM109.89 6.45L109.89 6.45Q108.75 7.21 108.27 7.77L108.27 7.77L108.27 7.77Q107.80 8.33 107.60 8.89L107.60 8.89L107.60 8.89Q107.41 9.46 107.54 10.32L107.54 10.32L107.54 10.32Q107.67 11.17 108.53 11.96L108.53 11.96L108.53 11.96Q109.40 12.75 109.92 12.75L109.92 12.75L109.92 12.75Q110.44 12.76 111.56 11.73L111.56 11.73L111.56 11.73Q111.99 11.34 112.38 10.82L112.38 10.82L112.38 10.82Q112.77 10.31 112.89 9.74L112.89 9.74L112.89 9.74Q113.00 9.17 112.82 8.50L112.82 8.50L112.82 8.50Q112.65 7.83 111.84 7.04L111.84 7.04L111.84 7.04Q111.04 6.25 109.89 6.45L109.89 6.45ZM109.53 7.26L109.53 7.26L109.53 7.26Q110.32 7.08 111.25 8.24L111.25 8.24L111.25 8.24Q112.19 9.41 111.99 10.23L111.99 10.23L111.99 10.23Q111.79 11.06 111.14 11.56L111.14 11.56L111.14 11.56Q110.48 12.05 109.74 11.45L109.74 11.45L109.74 11.45Q109.01 10.84 108.57 10.15L108.57 10.15L108.57 10.15Q108.13 9.46 108.44 8.45L108.44 8.45L108.44 8.45Q108.75 7.43 109.53 7.26ZM118.62 12.76L120.00 11.83L119.91 11.71L119.91 11.71Q119.28 12.12 119.29 10.52L119.29 10.52L119.29 10.52Q119.47 7.62 119.41 7.19L119.41 7.19L119.41 7.19Q119.35 6.76 118.76 6.37L118.76 6.37L117.68 7.08L117.74 7.21L117.74 7.21Q118.29 6.89 118.29 7.90L118.29 7.90L118.29 7.90Q118.29 8.91 118.21 10.80L118.21 10.80L118.21 10.80Q116.90 12.24 115.94 11.95L115.94 11.95L115.94 11.95Q114.98 11.66 115.12 9.75L115.12 9.75L115.12 9.75Q115.16 7.70 115.11 7.22L115.11 7.22L115.11 7.22Q115.06 6.73 114.47 6.36L114.47 6.36L113.43 7.10L113.52 7.25L113.52 7.25Q114.00 7.01 114.06 7.94L114.06 7.94L114.06 7.94Q114.13 8.88 114.06 10.32L114.06 10.32L114.06 10.32Q114.02 11.20 114.28 11.78L114.28 11.78L114.28 11.78Q114.55 12.37 115.23 12.61L115.23 12.61L115.23 12.61Q115.90 12.84 116.72 12.50L116.72 12.50L116.72 12.50Q117.53 12.15 118.19 11.46L118.19 11.46L118.19 11.46Q118.10 12.41 118.62 12.76L118.62 12.76ZM123.33 6.53L123.33 6.53L123.33 6.53Q122.66 6.63 122.21 6.92L122.21 6.92L122.21 6.92Q121.76 7.21 121.40 7.57L121.40 7.57L121.40 7.57Q121.04 7.94 120.95 8.43L120.95 8.43L120.95 8.43Q120.85 8.93 121.28 9.37L121.28 9.37L121.28 9.37Q121.71 9.80 122.76 10.02L122.76 10.02L122.76 10.02Q123.81 10.24 124.21 10.47L124.21 10.47L124.21 10.47Q124.61 10.70 124.70 11.11L124.70 11.11L124.70 11.11Q124.79 11.53 124.49 11.79L124.49 11.79L124.49 11.79Q124.20 12.05 123.42 11.93L123.42 11.93L123.42 11.93Q122.64 11.81 122.23 11.55L122.23 11.55L122.23 11.55Q121.82 11.29 121.46 10.89L121.46 10.89L121.46 10.89Q121.11 10.50 121.37 10.34L121.37 10.34L121.28 10.25L120.52 10.84L120.52 10.84Q120.39 11.20 120.79 11.70L120.79 11.70L120.79 11.70Q121.18 12.21 121.76 12.52L121.76 12.52L121.76 12.52Q122.34 12.82 123.07 12.80L123.07 12.80L123.07 12.80Q123.79 12.78 124.39 12.34L124.39 12.34L124.39 12.34Q125.00 11.90 125.30 11.35L125.30 11.35L125.30 11.35Q125.60 10.81 125.50 10.36L125.50 10.36L125.50 10.36Q125.41 9.91 125.00 9.56L125.00 9.56L125.00 9.56Q124.58 9.20 123.28 8.95L123.28 8.95L123.28 8.95Q121.97 8.70 121.92 8.09L121.92 8.09L121.92 8.09Q121.86 7.48 122.46 7.31L122.46 7.31L122.46 7.31Q123.05 7.14 123.77 7.45L123.77 7.45L123.77 7.45Q124.48 7.76 124.20 8.13L124.20 8.13L124.29 8.24L125.10 7.40L125.10 7.40Q125.00 6.93 124.49 6.68L124.49 6.68L124.49 6.68Q123.99 6.43 123.33 6.53ZM129.35 6.60L129.35 6.60L129.35 6.60Q128.28 6.43 127.35 7.26L127.35 7.26L127.35 7.26Q126.42 8.09 126.16 9.20L126.16 9.20L126.16 9.20Q125.90 10.31 126.32 11.26L126.32 11.26L126.32 11.26Q126.75 12.22 127.89 12.62L127.89 12.62L127.89 12.62Q128.82 12.93 129.82 12.18L129.82 12.18L129.82 12.18Q130.83 11.43 130.94 10.84L130.94 10.84L130.73 10.68L130.73 10.68Q129.91 11.85 129.13 11.81L129.13 11.81L129.13 11.81Q128.35 11.76 127.97 11.46L127.97 11.46L127.97 11.46Q127.58 11.15 127.37 10.80L127.37 10.80L129.26 9.54L129.26 9.54Q130.70 8.65 130.56 7.70L130.56 7.70L130.56 7.70Q130.42 6.76 129.35 6.60ZM126.92 8.75L126.92 8.75L126.92 8.75Q126.92 8.12 127.43 7.58L127.43 7.58L127.43 7.58Q127.93 7.04 128.53 7.19L128.53 7.19L128.53 7.19Q129.13 7.34 129.37 8.00L129.37 8.00L129.37 8.00Q129.60 8.67 129.31 9.02L129.31 9.02L129.31 9.02Q129.01 9.37 127.19 10.40L127.19 10.40L127.19 10.40Q127.03 10.04 126.97 9.71L126.97 9.71L126.97 9.71Q126.91 9.37 126.92 8.75Z"></path></g><!----><!----></svg>